<svg xmlns="http://www.w3.org/2000/svg" width="512" height="512" viewBox="0 0 512 512" role="img" aria-labelledby="title">
  <title id="title">Rifai Sicilia DAO</title>
  <defs>
    <linearGradient id="markBg" x1="0" y1="0" x2="1" y2="1">
      <stop offset="0" stop-color="#0f8a4b"/>
      <stop offset="1" stop-color="#067647"/>
    </linearGradient>
    <filter id="softShadow" x="-30%" y="-30%" width="160%" height="160%" color-interpolation-filters="sRGB">
      <feDropShadow dx="0" dy="18" stdDeviation="18" flood-color="#032516" flood-opacity="0.28"/>
    </filter>
  </defs>
  <rect width="512" height="512" rx="104" fill="#f6f8f3"/>
  <g filter="url(#softShadow)">
    <rect x="56" y="56" width="400" height="400" rx="88" fill="url(#markBg)"/>
    <path d="M256 112C188 112 134 166 134 234C134 325 256 404 256 404C256 404 378 325 378 234C378 166 324 112 256 112Z" fill="#ffffff" opacity="0.18"/>
    <text x="252" y="304" text-anchor="middle" dominant-baseline="middle" fill="#ffffff" font-family="Inter, ui-sans-serif, -apple-system, BlinkMacSystemFont, 'Segoe UI', sans-serif" font-size="232" font-weight="900">R</text>
    <path d="M333 150C295 155 266 176 249 213C286 208 319 187 333 150Z" fill="#bff4d4"/>
    <circle cx="256" cy="278" r="18" fill="#0a72ef" stroke="#ffffff" stroke-width="10"/>
  </g>
</svg>
